<svg width="637" height="510" viewBox="0 0 637 510" fill="none" xmlns="http://www.w3.org/2000/svg">
<g filter="url(#filter0_d_3217_38)">
<path d="M602.721 266.695L604.216 264.708C604.814 263.914 605.411 263.219 605.909 262.424L607.503 259.842L608.699 257.756C609.197 256.862 609.595 255.968 609.994 255.075C610.392 254.181 610.691 253.585 611.09 252.79L611.987 250.208C611.987 249.314 612.684 248.52 612.883 247.725C613.162 246.81 613.395 245.882 613.581 244.944C613.827 244.128 614.026 243.3 614.178 242.461C614.434 241.346 614.634 240.219 614.776 239.084V237.098C615.075 233.429 615.075 229.743 614.776 226.074V223.988C614.776 222.896 614.776 221.803 614.178 220.711C614.026 219.84 613.827 218.978 613.581 218.128C613.395 217.223 613.162 216.328 612.883 215.447C612.645 214.599 612.345 213.769 611.987 212.964L611.09 210.282L609.994 207.998C609.623 207.109 609.19 206.246 608.699 205.416L607.503 203.231C607.503 202.436 606.507 201.542 605.909 200.748C605.4 199.947 604.834 199.184 604.216 198.464L602.721 196.378C601.526 194.988 600.33 193.597 599.035 192.306L422.005 15.8188C411.517 5.59756 397.408 -0.086452 382.742 0.000994242C368.076 0.0884404 354.036 5.94026 343.672 16.2858C333.307 26.6313 327.455 40.6353 327.386 55.2567C327.317 69.878 333.036 83.9364 343.302 94.3789L425.292 176.018H55.6897C40.92 176.018 26.7551 181.867 16.3113 192.279C5.86752 202.691 0 216.812 0 231.536C0 246.261 5.86752 260.382 16.3113 270.794C26.7551 281.206 40.92 287.055 55.6897 287.055H425.292L343.302 368.793C337.815 373.872 333.411 380.001 330.354 386.815C327.297 393.629 325.65 400.987 325.511 408.45C325.372 415.913 326.744 423.328 329.545 430.25C332.346 437.173 336.518 443.461 341.813 448.739C347.107 454.017 353.414 458.177 360.358 460.969C367.302 463.761 374.739 465.129 382.225 464.99C389.711 464.852 397.092 463.21 403.927 460.162C410.762 457.115 416.911 452.724 422.005 447.254L599.035 270.767C600.34 269.48 601.571 268.12 602.721 266.695Z" fill="#002BFF"/>
<path d="M606.235 245.525C606.195 245.604 606.128 245.739 606.065 245.868L606.049 245.9C605.861 246.287 605.383 247.267 605.138 248.592L604.627 250.063C604.303 250.712 603.988 251.354 603.6 252.224C603.193 253.138 602.918 253.745 602.603 254.315C602.597 254.326 602.59 254.337 602.584 254.349L601.487 256.262L599.978 258.706C599.975 258.712 599.971 258.718 599.967 258.723C599.812 258.97 599.708 259.101 599.492 259.373C599.312 259.6 599.054 259.926 598.622 260.5L597.202 262.387C596.238 263.575 595.209 264.709 594.119 265.783L594.106 265.796L594.093 265.809L417.063 442.297L416.97 442.388L416.882 442.484C412.429 447.265 407.054 451.104 401.077 453.769C395.099 456.434 388.644 457.87 382.096 457.992C375.548 458.113 369.042 456.916 362.97 454.474C356.897 452.032 351.383 448.395 346.755 443.782C342.127 439.168 338.481 433.673 336.034 427.625C333.587 421.577 332.388 415.1 332.51 408.581C332.631 402.062 334.07 395.634 336.741 389.68C339.412 383.727 343.26 378.37 348.057 373.931L348.152 373.842L348.244 373.75L430.234 292.012L442.228 280.055H425.292H55.6897C42.7696 280.055 30.3829 274.938 21.2534 265.836C12.1247 256.736 7 244.397 7 231.536C7 218.675 12.1247 206.337 21.2534 197.236C30.3828 188.135 42.7695 183.018 55.6897 183.018H425.292H442.243L430.231 171.058L348.294 89.4715C348.286 89.4629 348.277 89.4542 348.268 89.4455C339.311 80.3207 334.326 68.0485 334.386 55.2898C334.446 42.5189 339.558 30.2829 348.617 21.24C357.677 12.1965 369.954 7.07737 382.784 7.00087C395.6 6.92445 407.926 11.8867 417.091 20.8045C417.1 20.8136 417.11 20.8227 417.119 20.8318L594.093 197.263C595.107 198.274 596.075 199.386 597.212 200.707L598.526 202.541L598.705 202.791L598.905 203.024C599.306 203.49 599.672 203.985 600.002 204.504L600.15 204.736L600.315 204.956C600.484 205.18 600.657 205.394 600.804 205.57L601.362 206.591L602.558 208.776L602.614 208.879L602.674 208.98C603 209.532 603.288 210.104 603.534 210.695L603.604 210.862L603.683 211.026L604.59 212.917L605.348 215.184L605.455 215.504L605.592 215.812C605.813 216.308 605.997 216.819 606.144 217.342L606.175 217.451L606.21 217.56C606.415 218.209 606.587 218.868 606.723 219.534L606.779 219.809L606.858 220.079C607.033 220.682 607.174 221.294 607.282 221.913L607.481 223.054L607.775 223.59C607.775 223.606 607.775 223.622 607.775 223.638C607.776 223.74 607.776 223.847 607.776 223.988V226.074V226.358L607.799 226.642C608.067 229.933 608.067 233.239 607.799 236.53L607.776 236.814V237.098V238.622C607.668 239.385 607.528 240.144 607.356 240.895L607.32 241.053L607.291 241.212C607.186 241.789 607.048 242.36 606.879 242.922L606.78 243.251L606.713 243.587C606.584 244.24 606.425 244.887 606.235 245.525Z" stroke="#26103D" stroke-width="14"/>
</g>
<defs>
<filter id="filter0_d_3217_38" x="0" y="0" width="637" height="510" filterUnits="userSpaceOnUse" color-interpolation-filters="sRGB">
<feFlood flood-opacity="0" result="BackgroundImageFix"/>
<feColorMatrix in="SourceAlpha" type="matrix" values="0 0 0 0 0 0 0 0 0 0 0 0 0 0 0 0 0 0 127 0" result="hardAlpha"/>
<feOffset dx="22" dy="45"/>
<feComposite in2="hardAlpha" operator="out"/>
<feColorMatrix type="matrix" values="0 0 0 0 0.14902 0 0 0 0 0.0627451 0 0 0 0 0.239216 0 0 0 1 0"/>
<feBlend mode="normal" in2="BackgroundImageFix" result="effect1_dropShadow_3217_38"/>
<feBlend mode="normal" in="SourceGraphic" in2="effect1_dropShadow_3217_38" result="shape"/>
</filter>
</defs>
</svg>
