<svg width="626" height="627" viewBox="0 0 626 627" fill="none" xmlns="http://www.w3.org/2000/svg">
<g filter="url(#filter0_d_3217_44)">
<path d="M15.6802 274.58C-3.77628 277.792 -4.42134 308.256 14.8898 312.25C178.99 346.191 250.373 393.527 289.929 567.1C294.405 586.741 329.589 586.437 333.223 566.624C364.812 394.38 416.396 342.753 588.619 311.192C608.433 307.561 608.437 274.411 588.623 270.777C416.38 239.188 364.752 187.604 333.192 15.381C329.561 -4.4332 296.411 -4.43721 292.777 15.3765C259.899 194.651 205.359 243.261 15.6802 274.58Z" fill="#002BFF"/>
<path d="M296.754 565.545C276.82 478.074 248.605 421.195 203.715 382.038C158.979 343.014 98.5836 322.412 16.3076 305.395C10.8303 304.262 7.61664 299.39 7.74558 293.269C7.87456 287.147 11.2942 282.399 16.8205 281.486C111.81 265.802 174.704 245.584 217.791 205.592C260.985 165.501 283.165 106.592 299.662 16.6392C300.66 11.1961 305.858 7.51746 312.984 7.51828C320.111 7.5191 325.309 11.1991 326.306 16.6428C342.142 103.056 363.243 160.818 403.202 200.767C443.161 240.716 500.938 261.813 587.361 277.662C592.804 278.661 596.483 283.859 596.482 290.985C596.481 298.111 592.801 303.309 587.357 304.307C500.944 320.142 443.182 341.243 403.233 381.203C363.284 421.161 342.187 478.938 326.337 565.361C325.378 570.591 319.913 574.577 311.822 574.657C303.738 574.738 297.962 570.841 296.754 565.545Z" stroke="#19154A" stroke-width="14"/>
</g>
<defs>
<filter id="filter0_d_3217_44" x="0.742188" y="0.518288" width="624.739" height="626.14" filterUnits="userSpaceOnUse" color-interpolation-filters="sRGB">
<feFlood flood-opacity="0" result="BackgroundImageFix"/>
<feColorMatrix in="SourceAlpha" type="matrix" values="0 0 0 0 0 0 0 0 0 0 0 0 0 0 0 0 0 0 127 0" result="hardAlpha"/>
<feOffset dx="22" dy="45"/>
<feComposite in2="hardAlpha" operator="out"/>
<feColorMatrix type="matrix" values="0 0 0 0 0.0980392 0 0 0 0 0.0823529 0 0 0 0 0.290196 0 0 0 1 0"/>
<feBlend mode="normal" in2="BackgroundImageFix" result="effect1_dropShadow_3217_44"/>
<feBlend mode="normal" in="SourceGraphic" in2="effect1_dropShadow_3217_44" result="shape"/>
</filter>
</defs>
</svg>
