<svg width="136" height="131" viewBox="0 0 136 131" fill="none" xmlns="http://www.w3.org/2000/svg">
<g filter="url(#filter0_i_85_10617)">
<rect width="136" height="131" rx="23" fill="#193FFF"/>
</g>
<rect x="0.5" y="0.5" width="135" height="130" rx="22.5" stroke="#132FBF"/>
<g filter="url(#filter1_d_85_10617)">
<path d="M53.2274 39V38.5H52.7274H40.4375C38.2322 38.5 36.4848 38.9695 35.2846 39.9952C34.0692 41.0337 33.5 42.568 33.5 44.5012V78.4445C33.5 81.3848 34.0936 83.6686 35.3716 85.2022L35.3714 85.2023L35.3808 85.2129C36.6941 86.7013 38.9438 87.3719 41.9591 87.3719H60.2183H60.7183V86.8719V75.7525V75.2525H60.2183H56.0047C55.3255 75.2525 54.7966 75.1954 54.4044 75.0931C54.0211 74.9931 53.8133 74.8617 53.7078 74.743C53.4179 74.3244 53.2274 73.5635 53.2274 72.3581V39ZM71.8059 124.124H72.3059V123.624V91.5537V91.0537H71.8059H57.1751C55.8254 91.0537 54.68 91.1625 53.7498 91.3899C52.8236 91.6163 52.0726 91.9696 51.5545 92.4877L51.5461 92.4961L51.5381 92.5049C51.064 93.0264 50.7455 93.787 50.5416 94.7248C50.3363 95.6695 50.2376 96.8396 50.2376 98.2253V116.953C50.2376 118.338 50.3363 119.509 50.5416 120.453C50.7455 121.391 51.064 122.152 51.5381 122.673L51.5461 122.682L51.5545 122.69C52.0726 123.208 52.8236 123.562 53.7498 123.788C54.68 124.016 55.8254 124.124 57.1751 124.124H71.8059ZM70.3695 38.5H65.9097C64.6105 38.5 63.596 39.0536 62.936 40.146C62.3004 41.1979 62.0154 42.7114 62.0154 44.6182V53.6308V54.1308H62.5154H70.3695V72.3581C70.3695 73.4932 70.1766 74.2238 69.8774 74.6425L69.8627 74.6631L69.8502 74.6851C69.7787 74.8102 69.6158 74.9563 69.2548 75.0712C68.8941 75.186 68.3855 75.2525 67.7093 75.2525H64.9002H64.4002V75.7525V86.8719V87.3719H64.9002H82.8082C85.1755 87.3719 87.0332 86.6531 88.2847 85.1426C88.479 84.9081 88.6569 84.6566 88.8189 84.3884V123.624V124.124H89.3189H101.609C102.958 124.124 104.104 124.016 105.034 123.788C105.96 123.562 106.711 123.208 107.229 122.69L107.238 122.682L107.246 122.673C107.72 122.152 108.038 121.391 108.242 120.453C108.448 119.509 108.546 118.338 108.546 116.953V54.1308H126.774C128.073 54.1308 129.087 53.5772 129.747 52.4848C130.383 51.4328 130.668 49.9193 130.668 48.0126V39V38.5H130.168H93.5326C92.1553 38.5 91.0023 38.98 90.1194 39.9512C89.7724 40.3328 89.497 40.7597 89.2906 41.2287C89.0567 40.7624 88.7685 40.3658 88.4218 40.044C87.6647 39.2909 86.5517 38.8354 85.1371 38.63V38.5H84.6371H83.1594H70.8695H70.3695Z" fill="#C4FA75" stroke="#132FBF"/>
</g>
<defs>
<filter id="filter0_i_85_10617" x="0" y="0" width="136" height="135" filterUnits="userSpaceOnUse" color-interpolation-filters="sRGB">
<feFlood flood-opacity="0" result="BackgroundImageFix"/>
<feBlend mode="normal" in="SourceGraphic" in2="BackgroundImageFix" result="shape"/>
<feColorMatrix in="SourceAlpha" type="matrix" values="0 0 0 0 0 0 0 0 0 0 0 0 0 0 0 0 0 0 127 0" result="hardAlpha"/>
<feOffset dy="4"/>
<feGaussianBlur stdDeviation="2"/>
<feComposite in2="hardAlpha" operator="arithmetic" k2="-1" k3="1"/>
<feColorMatrix type="matrix" values="0 0 0 0 0 0 0 0 0 0 0 0 0 0 0 0 0 0 0.25 0"/>
<feBlend mode="normal" in2="shape" result="effect1_innerShadow_85_10617"/>
</filter>
<filter id="filter1_d_85_10617" x="29" y="38" width="102.168" height="90.6243" filterUnits="userSpaceOnUse" color-interpolation-filters="sRGB">
<feFlood flood-opacity="0" result="BackgroundImageFix"/>
<feColorMatrix in="SourceAlpha" type="matrix" values="0 0 0 0 0 0 0 0 0 0 0 0 0 0 0 0 0 0 127 0" result="hardAlpha"/>
<feOffset dx="-4" dy="4"/>
<feComposite in2="hardAlpha" operator="out"/>
<feColorMatrix type="matrix" values="0 0 0 0 0 0 0 0 0 0 0 0 0 0 0 0 0 0 0.25 0"/>
<feBlend mode="normal" in2="BackgroundImageFix" result="effect1_dropShadow_85_10617"/>
<feBlend mode="normal" in="SourceGraphic" in2="effect1_dropShadow_85_10617" result="shape"/>
</filter>
</defs>
</svg>
